# Blender v2.91.2 OBJ File: 'skate.blend'
# www.blender.org
mtllib skate.mtl
o Cube
v 0.337004 0.149011 1.000000
v 1.000000 0.149011 0.337004
v 1.000000 -0.149011 0.337004
v 0.337004 -0.149011 1.000000
v 0.000000 0.149011 1.000000
v 0.000000 -0.149011 1.000000
v -0.337004 0.149011 1.000000
v -1.000000 0.149011 0.337004
v -1.000000 -0.149011 0.337004
v -0.337004 -0.149011 1.000000
v 1.000000 0.149011 0.000000
v 1.000000 -0.149011 0.000000
v 0.337004 0.149011 -1.000000
v 1.000000 0.149011 -0.337004
v 1.000000 -0.149011 -0.337004
v 0.337004 -0.149011 -1.000000
v -1.000000 0.149011 0.000000
v -1.000000 -0.149011 0.000000
v 0.000000 0.149011 -1.000000
v 0.000000 -0.149011 -1.000000
v 0.000000 -0.149011 0.000000
v 0.000000 0.149011 0.000000
v -0.337004 0.149011 -1.000000
v -1.000000 0.149011 -0.337004
v -1.000000 -0.149011 -0.337004
v -0.337004 -0.149011 -1.000000
vt 0.625000 0.625000
vt 0.750000 0.625000
vt 0.750000 0.750000
vt 0.707875 0.750000
vt 0.625000 0.667125
vt 0.375000 0.625000
vt 0.375000 0.667125
vt 0.250000 0.625000
vt 0.292125 0.750000
vt 0.250000 0.750000
vt 0.625000 0.832875
vt 0.375000 0.832875
vt 0.625000 0.875000
vt 0.375000 0.875000
vt 0.625000 0.625000
vt 0.625000 0.667125
vt 0.707875 0.750000
vt 0.375000 0.625000
vt 0.375000 0.667125
vt 0.292125 0.750000
vt 0.625000 0.832875
vt 0.375000 0.832875
vt 0.625000 0.667125
vt 0.707875 0.750000
vt 0.750000 0.750000
vt 0.375000 0.667125
vt 0.250000 0.750000
vt 0.292125 0.750000
vt 0.625000 0.832875
vt 0.375000 0.832875
vt 0.375000 0.875000
vt 0.625000 0.875000
vt 0.707875 0.750000
vt 0.625000 0.667125
vt 0.375000 0.667125
vt 0.292125 0.750000
vt 0.625000 0.832875
vt 0.375000 0.832875
vn 0.0000 1.0000 0.0000
vn 1.0000 0.0000 0.0000
vn 0.0000 -1.0000 -0.0000
vn 0.7071 0.0000 0.7071
vn 0.0000 0.0000 1.0000
vn -1.0000 0.0000 0.0000
vn -0.7071 0.0000 0.7071
vn 0.7071 0.0000 -0.7071
vn 0.0000 0.0000 -1.0000
vn -0.7071 0.0000 -0.7071
usemtl Material
s off
f 11/1/1 22/2/1 5/3/1 1/4/1 2/5/1
f 12/6/2 11/1/2 2/5/2 3/7/2
f 21/8/3 12/6/3 3/7/3 4/9/3 6/10/3
f 1/11/4 4/12/4 3/7/4 2/5/4
f 4/12/5 1/11/5 5/13/5 6/14/5
f 17/15/1 8/16/1 7/17/1 5/3/1 22/2/1
f 18/18/6 9/19/6 8/16/6 17/15/6
f 21/8/3 6/10/3 10/20/3 9/19/3 18/18/3
f 7/21/7 8/16/7 9/19/7 10/22/7
f 10/22/5 6/14/5 5/13/5 7/21/5
f 11/1/1 14/23/1 13/24/1 19/25/1 22/2/1
f 12/6/2 15/26/2 14/23/2 11/1/2
f 21/8/3 20/27/3 16/28/3 15/26/3 12/6/3
f 13/29/8 14/23/8 15/26/8 16/30/8
f 16/30/9 20/31/9 19/32/9 13/29/9
f 17/15/1 22/2/1 19/25/1 23/33/1 24/34/1
f 18/18/6 17/15/6 24/34/6 25/35/6
f 21/8/3 18/18/3 25/35/3 26/36/3 20/27/3
f 23/37/10 26/38/10 25/35/10 24/34/10
f 26/38/9 23/37/9 19/32/9 20/31/9
